PathFileType  4	(X/Y/Z) C:\Users\antoi\Documents\MyRepositories\mobilecap\ResultsAnalysis
DataRate	CameraRate	NumFrames	NumMarkers	Units	OrigDataRate	OrigDataStartFrame	OrigNumFrames
100.0	100.0	5	51	mm	100.0	1	295
Frame#	Time	r_knee			r_shank_antsup			r_ankle			r_calc			r_5meta			r_toe			L_knee			L_shank_antsup			L_ankle			L_calc			L_5meta			L_toe			r_sh2			r_sh3			r_sh4			L_sh2			L_sh3			r_thigh1			r_thigh2			r_thigh3			r_thigh4			r_thigh5			L_thigh1			L_thigh2			L_thigh3			L_thigh4			r.ASIS			r.PSIS			L.ASIS			L.PSIS			C7			R_Shoulder			L_Shoulder			R_Sternum			L_Sternum			R_humerus			R_elbow_med			R_elbow_lat			R_forearm			R_wrist_radius			R_wrist_ulna			L_humerus			L_elbow_med			L_elbow_lat			L_forearm			L_wrist_radius			L_wrist_ulna			R_HJC			L_HJC			R_HJC_reg			L_HJC_reg			
		X1	Y1	Z1	X2	Y2	Z2	X3	Y3	Z3	X4	Y4	Z4	X5	Y5	Z5	X6	Y6	Z6	X7	Y7	Z7	X8	Y8	Z8	X9	Y9	Z9	X10	Y10	Z10	X11	Y11	Z11	X12	Y12	Z12	X13	Y13	Z13	X14	Y14	Z14	X15	Y15	Z15	X16	Y16	Z16	X17	Y17	Z17	X18	Y18	Z18	X19	Y19	Z19	X20	Y20	Z20	X21	Y21	Z21	X22	Y22	Z22	X23	Y23	Z23	X24	Y24	Z24	X25	Y25	Z25	X26	Y26	Z26	X27	Y27	Z27	X28	Y28	Z28	X29	Y29	Z29	X30	Y30	Z30	X31	Y31	Z31	X32	Y32	Z32	X33	Y33	Z33	X34	Y34	Z34	X35	Y35	Z35	X36	Y36	Z36	X37	Y37	Z37	X38	Y38	Z38	X39	Y39	Z39	X40	Y40	Z40	X41	Y41	Z41	X42	Y42	Z42	X43	Y43	Z43	X44	Y44	Z44	X45	Y45	Z45	X46	Y46	Z46	X47	Y47	Z47	X48	Y48	Z48	X49	Y49	Z49	X50	Y50	Z50	X51	Y51	Z51	

1	0.00000000	-1130.67316	851.26852	-410.31763	-1114.03244	722.49392	-419.11893	-1247.83656	406.77630	-421.20123	-1313.96997	374.70250	-472.78976	-1119.72973	341.52427	-373.18466	-1078.51941	365.86437	-445.20756	-1159.29270	846.47768	-741.50765	-1126.62893	734.50961	-728.34576	-1248.49084	404.62495	-724.53440	-1310.00699	375.54080	-674.25003	-1108.60436	343.55517	-758.57910	-1074.25671	367.06784	-690.85133	-1131.10555	609.75875	-441.00029	-1176.17037	721.87133	-370.13272	-1184.44557	604.47974	-374.71014	-1208.46978	744.96458	-766.28613	-1201.99731	624.03770	-780.33860	-1024.03161	1081.34178	-429.13807	-1031.45720	971.58246	-443.40825	-1058.19262	942.96221	-388.51399	-1105.59442	1076.14841	-349.13608	-1109.14856	957.41898	-373.51095	-1071.41224	1097.89952	-765.05662	-1068.65501	960.94220	-751.96875	-1183.53880	1091.84896	-795.82515	-1178.71850	953.79492	-770.58892	-1051.46013	1352.23656	-430.30276	-1260.21035	1401.80250	-505.38861	-1058.18756	1346.85061	-698.43208	-1268.69534	1400.29978	-605.57312	-1191.71189	1896.84054	-568.29120	-1134.61338	1829.52678	-382.42436	-1128.11741	1841.61620	-743.54865	-1053.93767	1813.97873	-540.81228	-1054.03757	1809.09377	-585.87123	-1137.14243	1662.46884	-306.40437	-1213.04543	1440.34805	-356.07347	-1202.28845	1466.93291	-273.55845	-1099.00809	1326.07522	-256.41348	-1059.07442	1209.93929	-247.31368	-1089.94648	1198.99879	-221.18444	-1143.46552	1674.50987	-835.27808	-1239.13356	1468.40922	-804.18097	-1209.85795	1487.95157	-879.58306	-1106.45411	1351.52599	-868.99890	-1070.45570	1240.94429	-897.27628	-1104.47581	1235.74304	-929.40233	-1142.04762	1278.73643	-461.57630	-1148.92443	1264.45400	-674.37861	-1128.60210	1277.50983	-460.85622	-1143.54252	1274.86384	-637.26163	
2	0.01000000	-1130.36023	851.07733	-410.28086	-1113.70007	722.10515	-419.10046	-1247.89510	406.68096	-421.14064	-1314.26269	374.60332	-471.97685	-1119.70428	341.52173	-373.16530	-1078.61442	365.93931	-445.27061	-1157.95871	846.00785	-741.42636	-1125.36933	733.99552	-728.26069	-1248.45997	404.55506	-724.56114	-1310.10295	375.47899	-674.26520	-1108.65052	343.65282	-758.60439	-1074.27007	367.14437	-690.78777	-1130.95708	609.38785	-441.37383	-1175.54460	721.65180	-370.12661	-1184.17349	604.19162	-374.69418	-1207.16283	744.65571	-766.49508	-1201.21580	623.99308	-780.61929	-1024.53019	1081.37084	-429.26386	-1031.65639	971.52051	-443.38540	-1058.18164	942.80534	-388.55089	-1106.70713	1074.93269	-348.59009	-1109.21833	957.25571	-373.42596	-1071.24876	1097.77512	-765.11064	-1067.92481	960.78956	-751.72413	-1183.56757	1091.45581	-796.39389	-1177.80995	953.48266	-770.71391	-1052.07417	1351.71037	-430.40774	-1261.06683	1402.17157	-504.77705	-1058.90334	1346.41659	-698.13669	-1269.90565	1400.80189	-604.93262	-1189.00866	1896.90731	-568.41170	-1132.17051	1829.49426	-382.27491	-1125.59423	1841.41585	-743.79156	-1051.58453	1813.22126	-540.89370	-1051.86289	1808.36695	-585.80810	-1135.59767	1662.39052	-306.35091	-1212.87331	1440.78474	-355.63359	-1201.93977	1467.41211	-273.15618	-1098.96637	1326.26782	-256.02430	-1059.31483	1210.14467	-246.86683	-1090.09814	1199.27598	-220.72766	-1141.81656	1674.26195	-834.94006	-1238.82616	1468.77251	-804.45385	-1209.25922	1488.27918	-879.74998	-1106.38811	1351.44950	-869.07053	-1070.71962	1240.79327	-897.26310	-1104.64782	1235.77186	-929.58302	-1143.10106	1278.59892	-461.29267	-1150.35882	1264.45279	-674.09129	-1129.29608	1277.35104	-460.70029	-1144.83595	1274.94273	-636.79217	
3	0.02000000	-1130.11791	850.86398	-410.32243	-1113.38784	721.68219	-419.21943	-1247.92076	406.61610	-421.08321	-1314.38193	374.45853	-471.67711	-1119.69270	341.49156	-373.16842	-1078.67754	365.98374	-445.31849	-1156.78991	845.72028	-741.60932	-1124.24230	733.53666	-728.28893	-1248.43239	404.48683	-724.59387	-1310.16123	375.47638	-674.35348	-1108.66620	343.70154	-758.55042	-1074.30632	367.21997	-690.76257	-1130.80551	609.18703	-441.51663	-1175.13461	721.28826	-370.15123	-1183.88925	603.91794	-374.76887	-1206.03697	744.44489	-766.65163	-1200.49208	623.77652	-780.50193	-1025.02851	1081.36768	-429.26922	-1031.84930	971.44931	-443.24526	-1058.23869	942.62210	-388.49313	-1107.37574	1074.29521	-348.36137	-1109.33655	957.04954	-373.36621	-1071.12600	1097.66456	-765.14449	-1067.29794	960.64790	-751.70999	-1183.53066	1090.99026	-796.70806	-1177.09386	952.98603	-770.64476	-1052.69151	1351.24088	-430.46041	-1261.20164	1402.10133	-505.24029	-1059.57779	1345.94478	-697.78423	-1269.82885	1400.68241	-605.41321	-1186.06244	1896.91799	-568.94298	-1129.61189	1829.35306	-382.38987	-1123.19066	1841.58624	-743.60254	-1049.08333	1812.55154	-540.86441	-1049.41558	1807.53178	-585.69340	-1134.01753	1662.34210	-306.35819	-1212.28460	1441.42766	-355.27961	-1201.58043	1467.88858	-272.72220	-1098.96641	1326.40905	-255.62945	-1059.58889	1210.38892	-246.36759	-1090.32286	1199.41466	-220.40063	-1140.06152	1674.12752	-834.98633	-1238.42012	1469.18927	-804.61547	-1208.73638	1488.54833	-879.90734	-1106.32448	1351.37320	-869.15496	-1070.99550	1240.66227	-897.39012	-1104.85902	1235.75925	-929.73846	-1143.81379	1278.32542	-461.37918	-1150.79878	1264.08595	-674.18036	-1130.19355	1277.21288	-460.80675	-1145.33959	1274.72213	-636.66383	
4	0.03000000	-1129.92808	850.56734	-410.38677	-1113.11433	721.32822	-419.34105	-1247.94337	406.55752	-421.03700	-1314.46218	374.30331	-471.35261	-1119.70756	341.46155	-373.16581	-1078.73410	365.97663	-445.33661	-1155.73283	845.47033	-741.80804	-1123.22879	733.16212	-728.42680	-1248.40217	404.45054	-724.67629	-1310.18971	375.50321	-674.46451	-1108.65150	343.72113	-758.47084	-1074.35414	367.27196	-690.71599	-1130.64024	608.98777	-441.45299	-1174.87476	720.90519	-370.18969	-1183.59440	603.66010	-374.82297	-1205.02386	744.34857	-766.86344	-1199.84297	623.42817	-780.16703	-1025.49393	1081.32297	-429.18629	-1032.02072	971.42319	-443.01205	-1058.35840	942.42608	-388.42431	-1107.81046	1074.13652	-348.33828	-1109.55815	956.79779	-373.35803	-1071.06818	1097.56407	-765.15446	-1066.75833	960.50750	-751.79722	-1182.94421	1090.17339	-795.20985	-1176.53132	952.41937	-770.65407	-1053.30783	1350.80387	-430.44106	-1260.95311	1401.89181	-506.12557	-1060.25699	1345.42740	-697.41345	-1269.11778	1400.32843	-606.33576	-1182.97831	1896.96739	-569.30678	-1126.90097	1829.16526	-382.55006	-1120.73298	1841.93342	-743.18345	-1046.39694	1812.04037	-540.78912	-1046.75326	1806.63292	-585.94671	-1132.33941	1662.38311	-306.20581	-1211.85425	1442.08281	-354.80396	-1201.18865	1468.38022	-272.19285	-1098.99449	1326.53303	-255.34400	-1059.87735	1210.44968	-246.09555	-1090.67245	1199.41304	-220.13672	-1138.25347	1674.06929	-835.30043	-1237.97883	1469.66546	-804.86733	-1208.18806	1488.80392	-880.17187	-1106.27972	1351.29217	-869.23644	-1071.30791	1240.49568	-897.50154	-1105.10255	1235.72253	-929.87395	-1144.36956	1278.01812	-461.58192	-1150.82592	1263.55766	-674.38536	-1131.20635	1277.09701	-460.97907	-1145.52126	1274.35610	-636.67276	
5	0.04000000	-1129.67402	850.29633	-410.33671	-1112.87845	721.10130	-419.29790	-1248.00457	406.44144	-421.02544	-1314.57180	374.23788	-470.90906	-1119.75251	341.45304	-373.13391	-1078.80823	365.92986	-445.31324	-1154.63983	845.06737	-741.82744	-1122.23713	732.82235	-728.55113	-1248.36997	404.44582	-724.78815	-1310.23322	375.48388	-674.46021	-1108.63754	343.74746	-758.41078	-1074.39229	367.29457	-690.60794	-1130.49228	608.48734	-441.28590	-1174.60756	720.60492	-370.25332	-1183.39573	603.46016	-374.79967	-1203.97056	744.25969	-767.07975	-1199.16189	623.08184	-780.08333	-1025.92080	1081.25124	-429.13720	-1032.20798	971.43334	-442.84590	-1058.49109	942.27345	-388.41541	-1108.28166	1074.03274	-348.24294	-1109.78868	956.56830	-373.32645	-1071.07243	1097.46075	-765.15256	-1066.27194	960.40335	-751.75950	-1181.96571	1089.00319	-792.20586	-1176.00093	951.95237	-770.88761	-1053.93857	1350.37634	-430.34525	-1260.82582	1401.99102	-506.54546	-1060.94265	1344.88930	-697.14799	-1268.71391	1400.32700	-606.77661	-1179.86162	1897.09334	-569.01230	-1124.05427	1828.99852	-382.53020	-1117.88856	1841.86297	-742.88291	-1043.68985	1811.48242	-540.61412	-1044.20849	1806.08596	-585.98835	-1130.55645	1662.49202	-305.86642	-1212.19280	1442.52195	-353.98255	-1200.78489	1468.93118	-271.50685	-1099.03219	1326.67218	-255.15042	-1060.18761	1210.29379	-246.09857	-1091.08378	1199.47358	-219.72599	-1136.45209	1673.95477	-835.53058	-1237.62490	1470.17101	-805.35046	-1207.54782	1489.11304	-880.57984	-1106.26924	1351.20999	-869.30437	-1071.67237	1240.18834	-897.31805	-1105.36156	1235.70336	-930.03072	-1145.04206	1277.83520	-461.59453	-1151.24669	1263.20119	-674.39391	-1132.20927	1277.00299	-460.98763	-1146.03009	1274.08724	-636.60899	
